<svg width="68" height="68" viewBox="0 0 68 68" fill="none" xmlns="http://www.w3.org/2000/svg">
<g filter="url(#filter0_di_765_1965)">
<circle cx="34" cy="30" r="30" fill="white"/>
</g>
<path d="M33.5 14C37.8333 14 41.3472 17.5006 41.3472 21.8091C41.3472 26.1175 37.8333 29.6182 33.5 29.6182C29.1667 29.6182 25.6667 26.1175 25.6667 21.8091C25.6667 17.5006 29.1806 14 33.5 14ZM33.5 48C29.1806 48 25.2222 46.4268 22.1667 43.8333C21.4306 43.2097 21 42.2743 21 41.3105C21 36.9312 24.5556 33.4306 28.9444 33.4306H38.0694C42.4583 33.4306 46 36.9312 46 41.3105C46 42.2885 45.5694 43.2097 44.8333 43.8333C41.7778 46.4268 37.8194 48 33.5 48Z" fill="#979797"/>
<defs>
<filter id="filter0_di_765_1965" x="0" y="0" width="68" height="68" filterUnits="userSpaceOnUse" color-interpolation-filters="sRGB">
<feFlood flood-opacity="0" result="BackgroundImageFix"/>
<feColorMatrix in="SourceAlpha" type="matrix" values="0 0 0 0 0 0 0 0 0 0 0 0 0 0 0 0 0 0 127 0" result="hardAlpha"/>
<feOffset dy="4"/>
<feGaussianBlur stdDeviation="2"/>
<feColorMatrix type="matrix" values="0 0 0 0 0 0 0 0 0 0 0 0 0 0 0 0 0 0 0.2 0"/>
<feBlend mode="normal" in2="BackgroundImageFix" result="effect1_dropShadow_765_1965"/>
<feBlend mode="normal" in="SourceGraphic" in2="effect1_dropShadow_765_1965" result="shape"/>
<feColorMatrix in="SourceAlpha" type="matrix" values="0 0 0 0 0 0 0 0 0 0 0 0 0 0 0 0 0 0 127 0" result="hardAlpha"/>
<feOffset dy="7"/>
<feGaussianBlur stdDeviation="3.5"/>
<feComposite in2="hardAlpha" operator="arithmetic" k2="-1" k3="1"/>
<feColorMatrix type="matrix" values="0 0 0 0 0.898039 0 0 0 0 0.898039 0 0 0 0 0.898039 0 0 0 0.5 0"/>
<feBlend mode="normal" in2="shape" result="effect2_innerShadow_765_1965"/>
</filter>
</defs>
</svg>
